<svg width="103" height="34" viewBox="0 0 103 34" fill="none" xmlns="http://www.w3.org/2000/svg">
<rect width="103" height="34" rx="6" fill="#FAD85D"/>
<path d="M16 10.25V21.75M16 21.75L11 17.25M16 21.75L20.5 17.25M10 23.75H22" stroke="#161717" stroke-linecap="round"/>
<path d="M35.624 12.66C36.512 12.66 37.288 12.832 37.952 13.176C38.624 13.512 39.14 14 39.5 14.64C39.868 15.272 40.052 16.012 40.052 16.86C40.052 17.708 39.868 18.444 39.5 19.068C39.14 19.692 38.624 20.172 37.952 20.508C37.288 20.836 36.512 21 35.624 21H32.9V12.66H35.624ZM35.624 19.884C36.6 19.884 37.348 19.62 37.868 19.092C38.388 18.564 38.648 17.82 38.648 16.86C38.648 15.892 38.388 15.136 37.868 14.592C37.348 14.048 36.6 13.776 35.624 13.776H34.268V19.884H35.624ZM44.2758 21.108C43.6518 21.108 43.0878 20.968 42.5838 20.688C42.0798 20.4 41.6838 20 41.3958 19.488C41.1078 18.968 40.9638 18.368 40.9638 17.688C40.9638 17.016 41.1118 16.42 41.4078 15.9C41.7038 15.38 42.1078 14.98 42.6198 14.7C43.1318 14.42 43.7038 14.28 44.3358 14.28C44.9678 14.28 45.5398 14.42 46.0518 14.7C46.5638 14.98 46.9678 15.38 47.2638 15.9C47.5598 16.42 47.7078 17.016 47.7078 17.688C47.7078 18.36 47.5558 18.956 47.2518 19.476C46.9478 19.996 46.5318 20.4 46.0038 20.688C45.4838 20.968 44.9078 21.108 44.2758 21.108ZM44.2758 19.92C44.6278 19.92 44.9558 19.836 45.2598 19.668C45.5718 19.5 45.8238 19.248 46.0158 18.912C46.2078 18.576 46.3038 18.168 46.3038 17.688C46.3038 17.208 46.2118 16.804 46.0278 16.476C45.8438 16.14 45.5998 15.888 45.2958 15.72C44.9918 15.552 44.6638 15.468 44.3118 15.468C43.9598 15.468 43.6318 15.552 43.3278 15.72C43.0318 15.888 42.7958 16.14 42.6198 16.476C42.4438 16.804 42.3558 17.208 42.3558 17.688C42.3558 18.4 42.5358 18.952 42.8958 19.344C43.2638 19.728 43.7238 19.92 44.2758 19.92ZM57.9402 14.388L55.8882 21H54.4482L53.1162 16.116L51.7842 21H50.3442L48.2802 14.388H49.6722L51.0522 19.704L52.4562 14.388H53.8842L55.2282 19.68L56.5962 14.388H57.9402ZM62.2985 14.28C62.8185 14.28 63.2825 14.388 63.6905 14.604C64.1065 14.82 64.4305 15.14 64.6625 15.564C64.8945 15.988 65.0105 16.5 65.0105 17.1V21H63.6545V17.304C63.6545 16.712 63.5065 16.26 63.2105 15.948C62.9145 15.628 62.5105 15.468 61.9985 15.468C61.4865 15.468 61.0785 15.628 60.7745 15.948C60.4785 16.26 60.3305 16.712 60.3305 17.304V21H58.9625V14.388H60.3305V15.144C60.5545 14.872 60.8385 14.66 61.1825 14.508C61.5345 14.356 61.9065 14.28 62.2985 14.28ZM68.1235 12.12V21H66.7555V12.12H68.1235ZM72.7875 21.108C72.1635 21.108 71.5995 20.968 71.0955 20.688C70.5915 20.4 70.1955 20 69.9075 19.488C69.6195 18.968 69.4755 18.368 69.4755 17.688C69.4755 17.016 69.6235 16.42 69.9195 15.9C70.2155 15.38 70.6195 14.98 71.1315 14.7C71.6435 14.42 72.2155 14.28 72.8475 14.28C73.4795 14.28 74.0515 14.42 74.5635 14.7C75.0755 14.98 75.4795 15.38 75.7755 15.9C76.0715 16.42 76.2195 17.016 76.2195 17.688C76.2195 18.36 76.0675 18.956 75.7635 19.476C75.4595 19.996 75.0435 20.4 74.5155 20.688C73.9955 20.968 73.4195 21.108 72.7875 21.108ZM72.7875 19.92C73.1395 19.92 73.4675 19.836 73.7715 19.668C74.0835 19.5 74.3355 19.248 74.5275 18.912C74.7195 18.576 74.8155 18.168 74.8155 17.688C74.8155 17.208 74.7235 16.804 74.5395 16.476C74.3555 16.14 74.1115 15.888 73.8075 15.72C73.5035 15.552 73.1755 15.468 72.8235 15.468C72.4715 15.468 72.1435 15.552 71.8395 15.72C71.5435 15.888 71.3075 16.14 71.1315 16.476C70.9555 16.804 70.8675 17.208 70.8675 17.688C70.8675 18.4 71.0475 18.952 71.4075 19.344C71.7755 19.728 72.2355 19.92 72.7875 19.92ZM77.1159 17.664C77.1159 17 77.2519 16.412 77.5239 15.9C77.8039 15.388 78.1799 14.992 78.6519 14.712C79.1319 14.424 79.6599 14.28 80.2359 14.28C80.7559 14.28 81.2079 14.384 81.5919 14.592C81.9839 14.792 82.2959 15.044 82.5279 15.348V14.388H83.9079V21H82.5279V20.016C82.2959 20.328 81.9799 20.588 81.5799 20.796C81.1799 21.004 80.7239 21.108 80.2119 21.108C79.6439 21.108 79.1239 20.964 78.6519 20.676C78.1799 20.38 77.8039 19.972 77.5239 19.452C77.2519 18.924 77.1159 18.328 77.1159 17.664ZM82.5279 17.688C82.5279 17.232 82.4319 16.836 82.2399 16.5C82.0559 16.164 81.8119 15.908 81.5079 15.732C81.2039 15.556 80.8759 15.468 80.5239 15.468C80.1719 15.468 79.8439 15.556 79.5399 15.732C79.2359 15.9 78.9879 16.152 78.7959 16.488C78.6119 16.816 78.5199 17.208 78.5199 17.664C78.5199 18.12 78.6119 18.52 78.7959 18.864C78.9879 19.208 79.2359 19.472 79.5399 19.656C79.8519 19.832 80.1799 19.92 80.5239 19.92C80.8759 19.92 81.2039 19.832 81.5079 19.656C81.8119 19.48 82.0559 19.224 82.2399 18.888C82.4319 18.544 82.5279 18.144 82.5279 17.688ZM85.2487 17.664C85.2487 17 85.3847 16.412 85.6567 15.9C85.9367 15.388 86.3127 14.992 86.7847 14.712C87.2647 14.424 87.7967 14.28 88.3807 14.28C88.8127 14.28 89.2367 14.376 89.6527 14.568C90.0767 14.752 90.4127 15 90.6607 15.312V12.12H92.0407V21H90.6607V20.004C90.4367 20.324 90.1247 20.588 89.7247 20.796C89.3327 21.004 88.8807 21.108 88.3687 21.108C87.7927 21.108 87.2647 20.964 86.7847 20.676C86.3127 20.38 85.9367 19.972 85.6567 19.452C85.3847 18.924 85.2487 18.328 85.2487 17.664ZM90.6607 17.688C90.6607 17.232 90.5647 16.836 90.3727 16.5C90.1887 16.164 89.9447 15.908 89.6407 15.732C89.3367 15.556 89.0087 15.468 88.6567 15.468C88.3047 15.468 87.9767 15.556 87.6727 15.732C87.3687 15.9 87.1207 16.152 86.9287 16.488C86.7447 16.816 86.6527 17.208 86.6527 17.664C86.6527 18.12 86.7447 18.52 86.9287 18.864C87.1207 19.208 87.3687 19.472 87.6727 19.656C87.9847 19.832 88.3127 19.92 88.6567 19.92C89.0087 19.92 89.3367 19.832 89.6407 19.656C89.9447 19.48 90.1887 19.224 90.3727 18.888C90.5647 18.544 90.6607 18.144 90.6607 17.688Z" fill="#161717"/>
</svg>
