<svg width="76" height="34" viewBox="0 0 76 34" fill="none" xmlns="http://www.w3.org/2000/svg">
<rect x="0.5" y="0.5" width="75" height="33" rx="5.5" stroke="#525252"/>
<path d="M16 19.5C16 19.3674 16.0527 19.2402 16.1464 19.1464C16.2402 19.0527 16.3674 19 16.5 19H19.5C19.6326 19 19.7598 19.0527 19.8536 19.1464C19.9473 19.2402 20 19.3674 20 19.5C20 19.6326 19.9473 19.7598 19.8536 19.8536C19.7598 19.9473 19.6326 20 19.5 20H16.5C16.3674 20 16.2402 19.9473 16.1464 19.8536C16.0527 19.7598 16 19.6326 16 19.5ZM14 16.5C14 16.3674 14.0527 16.2402 14.1464 16.1464C14.2402 16.0527 14.3674 16 14.5 16H21.5C21.6326 16 21.7598 16.0527 21.8536 16.1464C21.9473 16.2402 22 16.3674 22 16.5C22 16.6326 21.9473 16.7598 21.8536 16.8536C21.7598 16.9473 21.6326 17 21.5 17H14.5C14.3674 17 14.2402 16.9473 14.1464 16.8536C14.0527 16.7598 14 16.6326 14 16.5ZM12 13.5C12 13.3674 12.0527 13.2402 12.1464 13.1464C12.2402 13.0527 12.3674 13 12.5 13H23.5C23.6326 13 23.7598 13.0527 23.8536 13.1464C23.9473 13.2402 24 13.3674 24 13.5C24 13.6326 23.9473 13.7598 23.8536 13.8536C23.7598 13.9473 23.6326 14 23.5 14H12.5C12.3674 14 12.2402 13.9473 12.1464 13.8536C12.0527 13.7598 12 13.6326 12 13.5Z" fill="white"/>
<path d="M36.9588 21.5V12.7727H42.3707V13.9062H38.2756V16.5653H41.983V17.6946H38.2756V21.5H36.9588ZM43.8878 21.5V14.9545H45.1619V21.5H43.8878ZM44.5312 13.9446C44.3097 13.9446 44.1193 13.8707 43.9602 13.723C43.804 13.5724 43.7259 13.3935 43.7259 13.1861C43.7259 12.9759 43.804 12.7969 43.9602 12.6491C44.1193 12.4986 44.3097 12.4233 44.5312 12.4233C44.7528 12.4233 44.9418 12.4986 45.098 12.6491C45.2571 12.7969 45.3366 12.9759 45.3366 13.1861C45.3366 13.3935 45.2571 13.5724 45.098 13.723C44.9418 13.8707 44.7528 13.9446 44.5312 13.9446ZM48.1502 12.7727V21.5H46.8761V12.7727H48.1502ZM52.9197 14.9545V15.9773H49.3445V14.9545H52.9197ZM50.3033 13.3864H51.5774V19.5781C51.5774 19.8253 51.6143 20.0114 51.6882 20.1364C51.7621 20.2585 51.8572 20.3423 51.9737 20.3878C52.093 20.4304 52.2223 20.4517 52.3615 20.4517C52.4638 20.4517 52.5533 20.4446 52.63 20.4304C52.7067 20.4162 52.7663 20.4048 52.8089 20.3963L53.0391 21.4489C52.9652 21.4773 52.8601 21.5057 52.7237 21.5341C52.5874 21.5653 52.4169 21.5824 52.2124 21.5852C51.8771 21.5909 51.5646 21.5312 51.2749 21.4062C50.9851 21.2812 50.7507 21.0881 50.5717 20.8267C50.3928 20.5653 50.3033 20.2372 50.3033 19.8423V13.3864ZM57.0799 21.6321C56.435 21.6321 55.8796 21.4943 55.4137 21.2188C54.9506 20.9403 54.5927 20.5497 54.3398 20.0469C54.0898 19.5412 53.9648 18.9489 53.9648 18.2699C53.9648 17.5994 54.0898 17.0085 54.3398 16.4972C54.5927 15.9858 54.945 15.5866 55.3967 15.2997C55.8512 15.0128 56.3825 14.8693 56.9904 14.8693C57.3597 14.8693 57.7177 14.9304 58.0643 15.0526C58.4109 15.1747 58.7219 15.3665 58.9975 15.6278C59.2731 15.8892 59.4904 16.2287 59.6495 16.6463C59.8086 17.0611 59.8881 17.5653 59.8881 18.1591V18.6108H54.685V17.6562H58.6396C58.6396 17.321 58.5714 17.0241 58.435 16.7656C58.2987 16.5043 58.1069 16.2983 57.8597 16.1477C57.6154 15.9972 57.3285 15.9219 56.9989 15.9219C56.641 15.9219 56.3285 16.0099 56.0614 16.1861C55.7972 16.3594 55.5927 16.5866 55.4478 16.8679C55.3058 17.1463 55.2347 17.4489 55.2347 17.7756V18.5213C55.2347 18.9588 55.3114 19.331 55.4648 19.6378C55.6211 19.9446 55.8384 20.179 56.1168 20.3409C56.3952 20.5 56.7205 20.5795 57.0927 20.5795C57.3342 20.5795 57.5543 20.5455 57.7532 20.4773C57.9521 20.4062 58.1239 20.3011 58.2688 20.1619C58.4137 20.0227 58.5245 19.8509 58.6012 19.6463L59.8072 19.8636C59.7106 20.2187 59.5373 20.5298 59.2873 20.7969C59.0401 21.0611 58.729 21.267 58.354 21.4148C57.9819 21.5597 57.5572 21.6321 57.0799 21.6321ZM61.3018 21.5V14.9545H62.5334V15.9943H62.6016C62.7209 15.642 62.9311 15.3651 63.2322 15.1634C63.5362 14.9588 63.88 14.8565 64.2635 14.8565C64.343 14.8565 64.4368 14.8594 64.5447 14.8651C64.6555 14.8707 64.7422 14.8778 64.8047 14.8864V16.1051C64.7536 16.0909 64.6626 16.0753 64.532 16.0582C64.4013 16.0384 64.2706 16.0284 64.1399 16.0284C63.8388 16.0284 63.5703 16.0923 63.3345 16.2202C63.1016 16.3452 62.9169 16.5199 62.7805 16.7443C62.6442 16.9659 62.576 17.2187 62.576 17.5028V21.5H61.3018Z" fill="white"/>
</svg>
